<?xml version="1.0" encoding="UTF-8"?>
<svg width="700pt" height="700pt" version="1.1" viewBox="0 0 700 700" xmlns="http://www.w3.org/2000/svg" xmlns:xlink="http://www.w3.org/1999/xlink">
 <g>
  <path fill="red" d="m252.18 345.72c0.37109 0 0.74219-0.011718 1.1172-0.03125 10.418-0.61719 18.363-9.5469 17.754-19.965-0.92969-15.703-1.3477-30.008-1.3398-43.02-0.078125-57.172 8.2539-89.293 16.441-106.06v354.16c0 16.125 13.074 29.191 29.191 29.191 16.121 0 29.195-13.062 29.195-29.191v-213.13h10.945v213.13c0 16.125 13.074 29.191 29.191 29.191 16.121 0 29.195-13.062 29.195-29.191l-0.007813-354.06c1.3984 2.8711 2.8086 6.1641 4.2031 10.008 6.6523 18.445 12.258 48.707 12.234 95.949 0 13.016-0.42188 27.32-1.3359 43.023-0.60938 10.414 7.3398 19.348 17.758 19.957 0.37109 0.019531 0.74219 0.03125 1.1133 0.03125 9.9297 0 18.258-7.7461 18.84-17.789 0.95312-16.367 1.3945-31.398 1.3945-45.223-0.09375-71.266-11.477-110.7-26.996-134.42-7.7578-11.77-16.828-19.324-25.215-23.5-8.0742-4.0703-15.168-4.9883-19.422-5.0391-0.27734-0.011719-0.54688-0.039063-0.82812-0.039063l-91.211-0.003906c-0.30078 0-0.59375 0.03125-0.88672 0.042969-4.2617 0.054687-11.328 0.98047-19.371 5.0352-12.699 6.2969-26.391 20.074-35.969 44.48-9.6992 24.508-16.207 59.938-16.238 113.44 0 13.824 0.44531 28.863 1.4062 45.23 0.58594 10.039 8.9141 17.785 18.84 17.789z"/>
  <path fill="red" d="m403.12 53.125c0 29.336-23.785 53.121-53.125 53.121s-53.125-23.785-53.125-53.121c0-29.34 23.785-53.125 53.125-53.125s53.125 23.785 53.125 53.125"/>
 </g>
</svg>