<?xml version="1.0" encoding="UTF-8"?>
<svg width="700pt" height="700pt" version="1.1" viewBox="0 0 700 700" xmlns="http://www.w3.org/2000/svg" xmlns:xlink="http://www.w3.org/1999/xlink">
 <g>
  <path fill="green" d="m490 210h-5.0391c-43.68 0-84.559-16.801-115.36-47.602-9.5195-9.5195-24.641-10.641-35.281-3.3594-49.281 29.68-90.719 71.121-120.4 120.4-7.2812 12.32-3.9219 28 7.2812 36.961 12.879 10.078 32.48 6.1602 40.879-7.8398 16.238-26.879 36.398-50.961 59.922-71.68v67.199c-17.922 61.602-43.121 120.96-75.039 176.96l-5.6016 9.5195c-7.8398 13.441-2.8008 30.801 10.641 38.078 4.4805 2.2383 8.9609 3.9219 14 3.9219 9.5195 0 19.039-5.0391 24.078-14l5.6016-9.5195c26.316-46.484 48.156-94.645 65.516-143.92 33.602 43.68 58.801 92.961 73.922 146.72 3.9219 14.559 20.16 23.52 34.719 19.039 14.559-3.9219 23.52-20.16 19.039-34.719-21.277-75.039-60.48-139.44-110.88-198.8v-59.359c32.48 18.48 68.879 28 106.96 28 14.559 0 28.559-6.1602 31.922-21.84 4.4766-17.359-9.5234-34.16-26.883-34.16z"/>
  <path fill="green" d="m406 84c0 30.93-25.07 56-56 56s-56-25.07-56-56 25.07-56 56-56 56 25.07 56 56"/>
 </g>
</svg>